<svg width="32" height="32" viewBox="0 0 32 32" fill="none" xmlns="http://www.w3.org/2000/svg">
<circle cx="16" cy="16" r="16" fill="#0CE6F3"/>
<path d="M21.8251 22.0757L20.5366 19.4491C20.2593 18.8879 19.9008 18.4795 19.282 18.7285L18.0612 19.1735C17.0838 19.6184 16.5969 19.1735 16.1065 18.5027L13.9084 13.5914C13.6311 13.0302 13.7765 12.5023 14.3953 12.2532L16.1031 11.5824C16.722 11.3301 16.6239 10.8054 16.3466 10.2442L14.8823 7.56774C14.605 7.00655 14.0369 6.8704 13.418 7.11945C12.1803 7.62088 11.1556 8.40787 10.4894 9.57343C9.67779 10.998 10.0836 12.9804 10.2459 13.8139C10.4083 14.6474 10.9764 16.1085 11.7102 17.6061C12.4441 19.1071 13.0866 20.2859 13.6649 20.9534C14.2398 21.6208 15.6195 23.4472 17.3273 23.8556C18.7274 24.1877 20.239 23.9088 21.4767 23.4073C22.099 23.1682 22.099 22.6403 21.8251 22.0757Z" fill="white"/>
</svg>
