<svg width="60" height="60" viewBox="0 0 60 60" fill="none" xmlns="http://www.w3.org/2000/svg">
<circle cx="30" cy="30" r="30" fill="white"/>
<path d="M40.6793 41.3779L38.3171 36.4336C37.8087 35.3772 37.1516 34.6084 36.017 35.0772L33.7788 35.9148C31.987 36.7524 31.0943 35.9148 30.1953 34.6521L26.1653 25.4074C25.657 24.351 25.9235 23.3572 27.0581 22.8884L30.1891 21.6258C31.3237 21.1507 31.1439 20.1631 30.6355 19.1067L27.9509 14.0687C27.4425 13.0123 26.4009 12.7561 25.2664 13.2249C22.9972 14.1687 21.1186 15.6501 19.8973 17.8441C18.4093 20.5256 19.1533 24.2573 19.4509 25.8262C19.7485 27.3951 20.79 30.1454 22.1354 32.9645C23.4808 35.7898 24.6588 38.0088 25.719 39.2651C26.7729 40.5215 29.3025 43.9594 32.4334 44.7282C35.0002 45.3533 37.7715 44.8282 40.0407 43.8844C41.1815 43.4343 41.1815 42.4405 40.6793 41.3779Z" fill="#FF1010"/>
</svg>
