<svg width="20" height="20" viewBox="0 0 20 20" fill="none" xmlns="http://www.w3.org/2000/svg">
<g id="Icon/Outline/eye">
<path id="Mask" fill-rule="evenodd" clip-rule="evenodd" d="M9.99988 11.2502C9.31071 11.2502 8.74988 10.6893 8.74988 10.0002C8.74988 9.31101 9.31071 8.75018 9.99988 8.75018C10.689 8.75018 11.2499 9.31101 11.2499 10.0002C11.2499 10.6893 10.689 11.2502 9.99988 11.2502ZM9.99988 7.08351C8.39155 7.08351 7.08321 8.39185 7.08321 10.0002C7.08321 11.6085 8.39155 12.9168 9.99988 12.9168C11.6082 12.9168 12.9165 11.6085 12.9165 10.0002C12.9165 8.39185 11.6082 7.08351 9.99988 7.08351ZM10.183 14.1648C6.59463 14.2482 4.2538 11.179 3.47713 9.99651C4.33213 8.65901 6.48546 5.92068 9.81713 5.83568C13.3913 5.74485 15.7455 8.82151 16.5221 10.004C15.668 11.3415 13.5138 14.0798 10.183 14.1648ZM18.223 9.58568C17.6913 8.65901 14.7546 4.01401 9.77463 4.16985C5.16796 4.28651 2.4888 8.34485 1.77713 9.58568C1.62963 9.84235 1.62963 10.1582 1.77713 10.4148C2.3013 11.329 5.13463 15.8332 10.0205 15.8332C10.0888 15.8332 10.1571 15.8323 10.2255 15.8307C14.8313 15.7132 17.5113 11.6557 18.223 10.4148C18.3696 10.1582 18.3696 9.84235 18.223 9.58568Z" fill="#231F20"/>
<mask id="mask0_102_8510" style="mask-type:alpha" maskUnits="userSpaceOnUse" x="1" y="4" width="18" height="12">
<path id="Mask_2" fill-rule="evenodd" clip-rule="evenodd" d="M9.99988 11.2502C9.31071 11.2502 8.74988 10.6893 8.74988 10.0002C8.74988 9.31101 9.31071 8.75018 9.99988 8.75018C10.689 8.75018 11.2499 9.31101 11.2499 10.0002C11.2499 10.6893 10.689 11.2502 9.99988 11.2502ZM9.99988 7.08351C8.39155 7.08351 7.08321 8.39185 7.08321 10.0002C7.08321 11.6085 8.39155 12.9168 9.99988 12.9168C11.6082 12.9168 12.9165 11.6085 12.9165 10.0002C12.9165 8.39185 11.6082 7.08351 9.99988 7.08351ZM10.183 14.1648C6.59463 14.2482 4.2538 11.179 3.47713 9.99651C4.33213 8.65901 6.48546 5.92068 9.81713 5.83568C13.3913 5.74485 15.7455 8.82151 16.5221 10.004C15.668 11.3415 13.5138 14.0798 10.183 14.1648ZM18.223 9.58568C17.6913 8.65901 14.7546 4.01401 9.77463 4.16985C5.16796 4.28651 2.4888 8.34485 1.77713 9.58568C1.62963 9.84235 1.62963 10.1582 1.77713 10.4148C2.3013 11.329 5.13463 15.8332 10.0205 15.8332C10.0888 15.8332 10.1571 15.8323 10.2255 15.8307C14.8313 15.7132 17.5113 11.6557 18.223 10.4148C18.3696 10.1582 18.3696 9.84235 18.223 9.58568Z" fill="white"/>
</mask>
<g mask="url(#mask0_102_8510)">
<g id="&#240;&#159;&#142;&#168; Color">
<rect id="Base" width="20" height="20" fill="#0D1C2E"/>
</g>
</g>
</g>
</svg>
