<svg width="60" height="60" viewBox="0 0 60 60" fill="none" xmlns="http://www.w3.org/2000/svg">
<circle cx="30" cy="30" r="30" fill="white"/>
<path d="M20.8801 19.3232C20.7779 19.221 20.6565 19.1398 20.5228 19.0845C20.3892 19.0291 20.246 19.0007 20.1014 19.0007C19.9567 19.0007 19.8135 19.0291 19.6799 19.0845C19.5463 19.1398 19.4249 19.221 19.3226 19.3232C19.2203 19.4255 19.1392 19.5469 19.0838 19.6805C19.0285 19.8142 19 19.9574 19 20.102C19 20.2467 19.0285 20.3899 19.0838 20.5235C19.1392 20.6571 19.2203 20.7785 19.3226 20.8808L25.6012 27.1572V28.9018C25.601 29.6077 25.7705 30.3032 26.0956 30.9298C26.4207 31.5563 26.8918 32.0955 27.4691 32.5017C28.0464 32.9079 28.7129 33.1692 29.4124 33.2637C30.112 33.3581 30.8239 33.2829 31.4883 33.0443L33.1492 34.7052C32.1437 35.2509 31.0137 35.5259 29.8699 35.5031C28.7261 35.4804 27.6079 35.1608 26.6249 34.5755C25.6419 33.9903 24.8279 33.1596 24.2628 32.165C23.6977 31.1703 23.4008 30.0458 23.4013 28.9018C23.4013 28.6098 23.2853 28.3297 23.0788 28.1232C22.8723 27.9167 22.5922 27.8007 22.3002 27.8007C22.0082 27.8007 21.7281 27.9167 21.5216 28.1232C21.3151 28.3297 21.1991 28.6098 21.1991 28.9018C21.1984 31.0456 21.9803 33.116 23.3981 34.7242C24.8158 36.3323 26.7719 37.3676 28.8989 37.6356V39.9015C28.8989 40.1932 29.0148 40.473 29.2211 40.6793C29.4274 40.8856 29.7072 41.0015 29.9989 41.0015C30.2906 41.0015 30.5704 40.8856 30.7767 40.6793C30.983 40.473 31.0989 40.1932 31.0989 39.9015V37.6356C32.4002 37.4727 33.6483 37.0194 34.7508 36.309L39.1199 40.6803C39.3264 40.8868 39.6065 41.0029 39.8986 41.0029C40.1907 41.0029 40.4709 40.8868 40.6774 40.6803C40.884 40.4737 41 40.1936 41 39.9015C41 39.6094 40.884 39.3293 40.6774 39.1227L20.8779 19.3232H20.8801ZM37.7449 33.0817L36.0949 31.4317C36.429 30.6301 36.6009 29.7702 36.6009 28.9018C36.6009 28.6101 36.7168 28.3303 36.9231 28.124C37.1294 27.9177 37.4092 27.8018 37.7009 27.8018C37.9926 27.8018 38.2724 27.9177 38.4787 28.124C38.685 28.3303 38.8009 28.6101 38.8009 28.9018C38.8009 30.4153 38.4203 31.8387 37.7471 33.0817H37.7449ZM34.335 29.6696L26.0764 21.411C26.5236 20.5285 27.2551 19.8225 28.1529 19.407C29.0507 18.9914 30.0624 18.8906 31.0245 19.1207C31.9867 19.3508 32.8432 19.8985 33.4559 20.6753C34.0685 21.452 34.4014 22.4126 34.401 23.4019V28.9018C34.401 29.1636 34.379 29.4188 34.335 29.6696Z" fill="#878787"/>
</svg>
