<svg width="42" height="42" viewBox="0 0 42 42" fill="none" xmlns="http://www.w3.org/2000/svg">
<path d="M31.5 11.0001C40.7 14.2001 35.3333 18.3334 31.5 20.0001L25.5 26L16 29.5L11.5 23L11 18.5L9 12.5L11.5 9.50011C14.3333 8.66678 22.3 7.80011 31.5 11.0001Z" fill="white"/>
<g filter="url(#filter0_bd_110_8873)">
<path d="M21 0C16.4913 0 12.1673 1.79107 8.97918 4.97919C5.79107 8.1673 4 12.4913 4 17C4 21.5087 5.79107 25.8327 8.97918 29.0208C12.1673 32.2089 16.4913 34 21 34C25.5087 34 29.8327 32.2089 33.0208 29.0208C36.2089 25.8327 38 21.5087 38 17C38 12.4913 36.2089 8.1673 33.0208 4.97919C29.8327 1.79107 25.5087 0 21 0V0ZM28.4375 15.9375C28.7193 15.9375 28.9895 16.0494 29.1888 16.2487C29.3881 16.448 29.5 16.7182 29.5 17C29.5 17.2818 29.3881 17.552 29.1888 17.7513C28.9895 17.9506 28.7193 18.0625 28.4375 18.0625H16.1274L20.6898 22.6227C20.7885 22.7215 20.8669 22.8388 20.9204 22.9679C20.9738 23.097 21.0013 23.2353 21.0013 23.375C21.0013 23.5147 20.9738 23.653 20.9204 23.7821C20.8669 23.9112 20.7885 24.0285 20.6898 24.1273C20.591 24.226 20.4737 24.3044 20.3446 24.3579C20.2155 24.4113 20.0772 24.4388 19.9375 24.4388C19.7978 24.4388 19.6595 24.4113 19.5304 24.3579C19.4013 24.3044 19.284 24.226 19.1852 24.1273L12.8102 17.7523C12.7113 17.6536 12.6328 17.5363 12.5792 17.4072C12.5257 17.2781 12.4981 17.1398 12.4981 17C12.4981 16.8602 12.5257 16.7219 12.5792 16.5928C12.6328 16.4637 12.7113 16.3464 12.8102 16.2477L19.1852 9.87275C19.284 9.77396 19.4013 9.6956 19.5304 9.64214C19.6595 9.58867 19.7978 9.56116 19.9375 9.56116C20.0772 9.56116 20.2155 9.58867 20.3446 9.64214C20.4737 9.6956 20.591 9.77396 20.6898 9.87275C20.7885 9.97154 20.8669 10.0888 20.9204 10.2179C20.9738 10.347 21.0013 10.4853 21.0013 10.625C21.0013 10.7647 20.9738 10.903 20.9204 11.0321C20.8669 11.1612 20.7885 11.2785 20.6898 11.3773L16.1274 15.9375H28.4375Z" fill="black"/>
</g>
<defs>
<filter id="filter0_bd_110_8873" x="-77" y="-81" width="196" height="196" filterUnits="userSpaceOnUse" color-interpolation-filters="sRGB">
<feFlood flood-opacity="0" result="BackgroundImageFix"/>
<feGaussianBlur in="BackgroundImage" stdDeviation="40.5"/>
<feComposite in2="SourceAlpha" operator="in" result="effect1_backgroundBlur_110_8873"/>
<feColorMatrix in="SourceAlpha" type="matrix" values="0 0 0 0 0 0 0 0 0 0 0 0 0 0 0 0 0 0 127 0" result="hardAlpha"/>
<feOffset dy="4"/>
<feGaussianBlur stdDeviation="2"/>
<feComposite in2="hardAlpha" operator="out"/>
<feColorMatrix type="matrix" values="0 0 0 0 0 0 0 0 0 0 0 0 0 0 0 0 0 0 0.25 0"/>
<feBlend mode="normal" in2="effect1_backgroundBlur_110_8873" result="effect2_dropShadow_110_8873"/>
<feBlend mode="normal" in="SourceGraphic" in2="effect2_dropShadow_110_8873" result="shape"/>
</filter>
</defs>
</svg>
