<svg width="60" height="60" viewBox="0 0 60 60" fill="none" xmlns="http://www.w3.org/2000/svg">
<circle cx="30" cy="30" r="30" fill="white"/>
<path d="M28.6743 22.0837C28.8176 22.1527 28.9386 22.2608 29.0233 22.3955C29.108 22.5302 29.153 22.686 29.1531 22.8452V36.3827C29.1529 36.5419 29.1078 36.6978 29.0229 36.8325C28.938 36.9672 28.8169 37.0752 28.6734 37.1442C28.5299 37.2131 28.3698 37.2401 28.2116 37.2222C28.0534 37.2042 27.9035 37.142 27.7791 37.0426L23.7804 33.8444H19.8461C19.6217 33.8444 19.4065 33.7553 19.2478 33.5966C19.0891 33.4379 19 33.2227 19 32.9983V26.2295C19 26.0051 19.0891 25.7899 19.2478 25.6313C19.4065 25.4726 19.6217 25.3834 19.8461 25.3834H23.7804L27.7791 22.1852C27.9036 22.0857 28.0537 22.0234 28.212 22.0054C28.3704 21.9874 28.5306 22.0146 28.6743 22.0837ZM40.7514 25.6305C40.8302 25.7091 40.8927 25.8025 40.9354 25.9053C40.978 26.0081 41 26.1183 41 26.2295C41 26.3408 40.978 26.451 40.9354 26.5538C40.8927 26.6566 40.8302 26.75 40.7514 26.8286L37.9644 29.6139L40.7514 32.3993C40.9103 32.5581 40.9996 32.7736 40.9996 32.9983C40.9996 33.223 40.9103 33.4385 40.7514 33.5973C40.5926 33.7562 40.3771 33.8455 40.1524 33.8455C39.9277 33.8455 39.7122 33.7562 39.5534 33.5973L36.768 30.8103L33.9827 33.5973C33.8238 33.7562 33.6083 33.8455 33.3836 33.8455C33.1589 33.8455 32.9435 33.7562 32.7846 33.5973C32.6257 33.4385 32.5365 33.223 32.5365 32.9983C32.5365 32.7736 32.6257 32.5581 32.7846 32.3993L35.5716 29.6139L32.7846 26.8286C32.7059 26.7499 32.6435 26.6565 32.6009 26.5537C32.5584 26.451 32.5365 26.3408 32.5365 26.2295C32.5365 26.1183 32.5584 26.0081 32.6009 25.9053C32.6435 25.8026 32.7059 25.7092 32.7846 25.6305C32.9435 25.4716 33.1589 25.3824 33.3836 25.3824C33.4949 25.3824 33.605 25.4043 33.7078 25.4469C33.8106 25.4894 33.904 25.5518 33.9827 25.6305L36.768 28.4175L39.5534 25.6305C39.632 25.5517 39.7253 25.4892 39.8281 25.4465C39.9309 25.4039 40.0411 25.3819 40.1524 25.3819C40.2637 25.3819 40.3739 25.4039 40.4767 25.4465C40.5795 25.4892 40.6728 25.5517 40.7514 25.6305Z" fill="#878787"/>
</svg>
