<svg width="120" height="15" viewBox="0 0 120 15" fill="none" xmlns="http://www.w3.org/2000/svg">
<path d="M109.353 4.619L111.537 0.292C111.579 0.204954 111.644 0.131433 111.726 0.0798096C111.808 0.0281859 111.902 0.000533281 111.999 0C112.182 0 112.365 0.097 112.464 0.292L114.648 4.619L119.546 5.315C119.668 5.33419 119.78 5.39491 119.862 5.48691C119.945 5.57891 119.993 5.69655 119.999 5.82C120.006 5.90219 119.994 5.98489 119.965 6.06194C119.935 6.13899 119.889 6.2084 119.829 6.265L116.306 9.621L117.136 14.351C117.214 14.794 116.776 15.141 116.39 14.943L111.999 12.687L107.61 14.943C107.564 14.9668 107.515 14.9837 107.464 14.993C107.122 15.053 106.796 14.739 106.864 14.351L107.694 9.621L104.172 6.265C104.117 6.2132 104.074 6.15069 104.044 6.08137C104.015 6.01204 104 5.93737 104 5.862C104 5.75544 104.029 5.65095 104.085 5.56C104.124 5.49407 104.178 5.43783 104.242 5.39542C104.306 5.35302 104.379 5.32553 104.455 5.315L109.353 4.619ZM111.999 11.527C112.08 11.5267 112.159 11.5459 112.231 11.583L115.917 13.477L115.223 9.52C115.207 9.429 115.213 9.33536 115.241 9.24731C115.269 9.15926 115.319 9.07949 115.385 9.015L118.292 6.245L114.24 5.669C114.156 5.65633 114.077 5.62351 114.008 5.57335C113.94 5.52319 113.884 5.45719 113.847 5.381L112 1.723L111.999 1.726V11.526V11.527Z" fill="#0CE6F3"/>
<path d="M3.61065 14.9435C3.22465 15.1415 2.78665 14.7945 2.86465 14.3515L3.69465 9.6215L0.171653 6.2655C-0.157347 5.9515 0.0136534 5.3775 0.454653 5.3155L5.35265 4.6195L7.53665 0.2925C7.73365 -0.0975 8.26665 -0.0975 8.46365 0.2925L10.6477 4.6195L15.5457 5.3155C15.9867 5.3775 16.1577 5.9515 15.8277 6.2655L12.3057 9.6215L13.1357 14.3515C13.2137 14.7945 12.7757 15.1415 12.3897 14.9435L7.99865 12.6875L3.60965 14.9435H3.61065Z" fill="#0CE6F3"/>
<path d="M29.6107 14.9435C29.2247 15.1415 28.7867 14.7945 28.8647 14.3515L29.6947 9.6215L26.1717 6.2655C25.8427 5.9515 26.0137 5.3775 26.4547 5.3155L31.3527 4.6195L33.5367 0.2925C33.7337 -0.0975 34.2667 -0.0975 34.4637 0.2925L36.6477 4.6195L41.5457 5.3155C41.9867 5.3775 42.1577 5.9515 41.8277 6.2655L38.3057 9.6215L39.1357 14.3515C39.2137 14.7945 38.7757 15.1415 38.3897 14.9435L33.9987 12.6875L29.6097 14.9435H29.6107Z" fill="#0CE6F3"/>
<path d="M55.6107 14.9435C55.2247 15.1415 54.7867 14.7945 54.8647 14.3515L55.6947 9.6215L52.1717 6.2655C51.8427 5.9515 52.0137 5.3775 52.4547 5.3155L57.3527 4.6195L59.5367 0.2925C59.7337 -0.0975 60.2667 -0.0975 60.4637 0.2925L62.6477 4.6195L67.5457 5.3155C67.9867 5.3775 68.1577 5.9515 67.8277 6.2655L64.3057 9.6215L65.1357 14.3515C65.2137 14.7945 64.7757 15.1415 64.3897 14.9435L59.9987 12.6875L55.6097 14.9435H55.6107Z" fill="#0CE6F3"/>
<path d="M81.6107 14.9435C81.2247 15.1415 80.7867 14.7945 80.8647 14.3515L81.6947 9.6215L78.1717 6.2655C77.8427 5.9515 78.0137 5.3775 78.4547 5.3155L83.3527 4.6195L85.5367 0.2925C85.7337 -0.0975 86.2667 -0.0975 86.4637 0.2925L88.6477 4.6195L93.5457 5.3155C93.9867 5.3775 94.1577 5.9515 93.8277 6.2655L90.3057 9.6215L91.1357 14.3515C91.2137 14.7945 90.7757 15.1415 90.3897 14.9435L85.9987 12.6875L81.6097 14.9435H81.6107Z" fill="#0CE6F3"/>
</svg>
