<svg width="40" height="40" viewBox="0 0 40 40" fill="none" xmlns="http://www.w3.org/2000/svg">
<path fill-rule="evenodd" clip-rule="evenodd" d="M27.2725 14.5454C27.2725 16.4743 26.5063 18.3241 25.1424 19.688C23.7785 21.0519 21.9286 21.8182 19.9998 21.8182C18.0709 21.8182 16.2211 21.0519 14.8572 19.688C13.4933 18.3241 12.7271 16.4743 12.7271 14.5454C12.7271 12.6166 13.4933 10.7667 14.8572 9.40284C16.2211 8.03894 18.0709 7.27271 19.9998 7.27271C21.9286 7.27271 23.7785 8.03894 25.1424 9.40284C26.5063 10.7667 27.2725 12.6166 27.2725 14.5454ZM23.6361 14.5454C23.6361 15.5099 23.253 16.4348 22.5711 17.1167C21.8891 17.7987 20.9642 18.1818 19.9998 18.1818C19.0354 18.1818 18.1104 17.7987 17.4285 17.1167C16.7465 16.4348 16.3634 15.5099 16.3634 14.5454C16.3634 13.581 16.7465 12.6561 17.4285 11.9741C18.1104 11.2922 19.0354 10.9091 19.9998 10.9091C20.9642 10.9091 21.8891 11.2922 22.5711 11.9741C23.253 12.6561 23.6361 13.581 23.6361 14.5454Z" fill="black"/>
<path fill-rule="evenodd" clip-rule="evenodd" d="M20 0C8.95455 0 0 8.95455 0 20C0 31.0455 8.95455 40 20 40C31.0455 40 40 31.0455 40 20C40 8.95455 31.0455 0 20 0ZM3.63636 20C3.63636 23.8 4.93273 27.2982 7.10545 30.0764C8.63133 28.0725 10.5998 26.4486 12.8572 25.3315C15.1145 24.2143 17.5995 23.6342 20.1182 23.6364C22.6042 23.634 25.058 24.1991 27.2926 25.2887C29.5272 26.3783 31.4836 27.9635 33.0127 29.9236C34.5881 27.8575 35.6488 25.4458 36.1071 22.8883C36.5654 20.3308 36.4081 17.701 35.6482 15.2163C34.8883 12.7317 33.5477 10.4637 31.7372 8.60007C29.9268 6.73641 27.6986 5.33065 25.2371 4.49911C22.7755 3.66756 20.1513 3.43413 17.5816 3.81813C15.0119 4.20214 12.5705 5.19253 10.4596 6.70737C8.34863 8.22221 6.62875 10.2179 5.44223 12.5294C4.25572 14.8409 3.63669 17.4018 3.63636 20ZM20 36.3636C16.2435 36.3693 12.6005 35.077 9.68727 32.7055C10.8599 31.0268 12.4206 29.6562 14.2367 28.7103C16.0528 27.7645 18.0705 27.2713 20.1182 27.2727C22.1403 27.2711 24.1336 27.752 25.9326 28.6753C27.7316 29.5987 29.2843 30.9379 30.4618 32.5818C27.526 35.0304 23.8229 36.369 20 36.3636Z" fill="black"/>
</svg>
