<svg width="224" height="73" viewBox="0 0 224 73" fill="none" xmlns="http://www.w3.org/2000/svg">
<path d="M82.7388 0C78.2881 0 74.6667 3.58899 74.6667 7.99499C74.6375 14.44 82.4321 19.784 82.7388 20C82.7388 20 90.8402 14.44 90.8109 7.99999C90.8109 3.58899 87.1896 0 82.7388 0ZM82.7388 12C80.5089 12 78.7028 10.21 78.7028 7.99999C78.7028 5.78999 80.5089 3.99999 82.7388 3.99999C84.9687 3.99999 86.7749 5.78999 86.7749 7.99999C86.7749 10.21 84.9687 12 82.7388 12Z" fill="#18E8F5"/>
<path d="M183.135 48.0597L174.054 50.9999C203.073 52.8779 201.6 53.5491 201.6 57.263C201.6 62.2254 164.808 67.7543 112 67.7543C59.192 67.7543 22.4 62.2254 22.4 57.263C22.4 53.5491 28.9876 54.9404 58.018 53.0598L59.5315 48.0595C19.9171 50.6246 0 51.0285 0 57.263C0 66.0862 49.2016 73 112 73C174.798 73 224 66.0862 224 57.263C224 51.0285 222.738 50.6222 183.135 48.0597Z" fill="#18E8F5"/>
<path d="M74.1826 15.6992L59.4712 57.9991H44.2756L29.5037 15.6992H42.2172L51.9037 46.2391L61.5296 15.6992H74.1826Z" fill="#18E8F5"/>
<path d="M89.7458 24.3392V57.9991H77.8798V24.3392H89.7458Z" fill="#18E8F5"/>
<path d="M110.972 58.4191C107.905 58.4191 105.16 57.9191 102.739 56.9191C100.358 55.8791 98.4606 54.4791 97.048 52.7191C95.6757 50.9191 94.9089 48.8991 94.7474 46.6591H106.25C106.412 47.7391 106.916 48.5791 107.764 49.1791C108.611 49.7791 109.661 50.0791 110.912 50.0791C111.88 50.0791 112.647 49.8791 113.212 49.4791C113.777 49.0791 114.06 48.5591 114.06 47.9191C114.06 47.0791 113.596 46.4591 112.667 46.0591C111.739 45.6591 110.205 45.2191 108.066 44.7391C105.645 44.2591 103.627 43.7192 102.012 43.1192C100.398 42.5192 98.9853 41.5392 97.7745 40.1792C96.604 38.8192 96.0188 36.9792 96.0188 34.6592C96.0188 32.6592 96.5637 30.8592 97.6534 29.2592C98.7431 27.6192 100.337 26.3192 102.436 25.3592C104.575 24.3992 107.138 23.9192 110.125 23.9192C114.564 23.9192 118.056 24.9992 120.598 27.1592C123.141 29.3192 124.614 32.1592 125.018 35.6792H114.302C114.1 34.5992 113.616 33.7792 112.849 33.2192C112.123 32.6192 111.134 32.3192 109.883 32.3192C108.914 32.3192 108.167 32.4992 107.643 32.8592C107.158 33.2192 106.916 33.7192 106.916 34.3592C106.916 35.1592 107.38 35.7792 108.309 36.2192C109.237 36.6192 110.73 37.0392 112.789 37.4792C115.251 37.9992 117.289 38.5792 118.903 39.2192C120.558 39.8592 121.991 40.8992 123.201 42.3391C124.453 43.7391 125.078 45.6591 125.078 48.0991C125.078 50.0591 124.493 51.8191 123.323 53.3791C122.192 54.9391 120.558 56.1791 118.419 57.0991C116.32 57.9791 113.838 58.4191 110.972 58.4191Z" fill="#18E8F5"/>
<path d="M150.951 47.9791V57.9991H145.805C137.127 57.9991 132.789 53.7391 132.789 45.2191V34.1192H128.611V24.3392H132.789V16.1792H144.715V24.3392H150.89V34.1192H144.715V45.3991C144.715 46.3191 144.917 46.9791 145.321 47.3791C145.765 47.7791 146.491 47.9791 147.5 47.9791H150.951Z" fill="#18E8F5"/>
<path d="M154.456 41.1392C154.456 37.6592 155.082 34.6192 156.333 32.0192C157.624 29.4192 159.36 27.4192 161.539 26.0192C163.759 24.6192 166.221 23.9192 168.925 23.9192C171.266 23.9192 173.284 24.3792 174.979 25.2992C176.674 26.2192 177.986 27.4592 178.914 29.0192V24.3392H190.78V57.9991H178.914V53.3191C177.986 54.8791 176.654 56.1191 174.919 57.0391C173.224 57.9591 171.226 58.4191 168.925 58.4191C166.221 58.4191 163.759 57.7191 161.539 56.3191C159.36 54.9191 157.624 52.9191 156.333 50.3191C155.082 47.6791 154.456 44.6191 154.456 41.1392ZM178.914 41.1392C178.914 38.9792 178.309 37.2792 177.098 36.0392C175.928 34.7992 174.475 34.1792 172.739 34.1792C170.963 34.1792 169.49 34.7992 168.32 36.0392C167.149 37.2392 166.564 38.9392 166.564 41.1392C166.564 43.2991 167.149 45.0191 168.32 46.2991C169.49 47.5391 170.963 48.1591 172.739 48.1591C174.475 48.1591 175.928 47.5391 177.098 46.2991C178.309 45.0592 178.914 43.3391 178.914 41.1392Z" fill="#18E8F5"/>
</svg>
